<?xml version="1.0" encoding="UTF-8"?>
<svg id="a" data-name="Stacked - TWWG Clear" xmlns="http://www.w3.org/2000/svg" viewBox="0 0 1483.63 958.7">
  <path d="M1346.1,759.89c-1.28,1.5-3.94.22-3.38-2.02-1.61-8-7.98-12.75-15.84-13.04l-36.81-.26-.4,61.54c.44,5.77,3.79,9.71,9.51,11.27,1.98-.24,3.36,1.27,2.37,3.21l-49.93-.21c-.79-1.99.3-2.93,1.93-2.94,1.22-.52,2.27-.86,3.21-1.65,4.33-1.27,6.21-4.59,6.79-9.3l.09-128.9c-.04-6.95-4.25-12.32-10.57-13.72-1.21.02-1.74-.96-1.82-1.55.2-1.12,1.25-2.05,2.88-1.67,2.16-.33,4-.2,6.32.11l104.9-.04-.07,31.95c-1.42.37-2.76.03-3.14-.47-1.5-11.13-9.52-18.65-20.46-19.66l-6.85-1.17-44.8-.27-.17,58.47c-.46,1.39-.37,2.5,1.16,3.94l39.31-.21c6.66-1.4,10.74-5.36,12.41-11.75-.01-1.21.47-2.93,3.1-2.77l.27,41.1Z" fill="#f4f1e8"/>
  <path d="M1483.2,817.95c1.29,1.96-.57,3.73-2.59,2.55h-47.8c-.63-1.89.57-3.29,2.39-3.24,7.01-2.25,10.56-7.95,9.45-15.34v-124.91c-.03-6.59-3.55-11.61-9.96-13.1-1.15,0-2.48-.85-2.03-3.19l48.25.03c1.19-.55,2.74.54,2.59,2.24-6.31,1.21-11.11,5.02-12.4,11.47l.06,133.16c1.15,3.99,2.61,6.79,6.46,8.22,1.11,1.13,2.36,2.1,5.56,2.11Z" fill="#f4f1e8"/>
  <g>
    <path d="M538.43,496.26l20.75-19.07,20.29-19.02,210.15-.28c15.58-1.13,28.89-4.2,43.23-9.04,31.67-11.94,58.24-32.35,78.64-59.73,24.51-32.5,37.75-70.67,40.36-110.96,1.02-4.95.7-10.06.36-15.4.39-20-1.96-38.85-7.3-57.84-9.33-34.07-27.43-64.18-53.39-88.3l-12.97-11.03c-16.45-11.62-33.88-21.1-53.37-26.68-10.81-3.25-20.66-4.57-32.41-5.8l-228.79-.14-14.5-13.2-15.91-14.46-19.97-18.21-18.29-16.85L485.25.1l294.81.02c24.84-.81,46.8,2.43,70.54,9.08,42.08,12.59,78.91,35.93,108.55,68.17,2.3,1.97,3.95,3.8,5.18,6.17,12.55,13.88,21.95,28.97,31.11,45.62,16.16,31.27,26.18,64.71,29.97,100l1.35,12.37-.15,37.74c-1.05,23.81-5.54,46.54-12.36,69.47l-8.63,24.47-9.77,20.63c-9.71,19.13-21.21,35.89-35.41,52.38-20.83,23.97-45.06,42.88-73.19,57.55-28.31,15.03-57.28,22.84-89.72,25.75l-293.77.03,20.71-20.28,13.96-13.01Z" fill="#1d9e75"/>
    <polygon points="523.54 446.18 502.98 463.98 494.94 470.28 494.44 460.33 494.42 263.02 494.45 241.88 494.5 82.13 511.8 95.99 528.69 110.9 572.16 148.03 572.29 403.52 551.75 421.86 523.54 446.18" fill="#1d9e75"/>
    <rect x="638.4" y="257.56" width="226.89" height="18.06" fill="#c9a84c"/>
    <rect x="638.39" y="180.35" width="226.98" height="14.77" fill="#1d9e75"/>
    <rect x="638.37" y="340.53" width="226.99" height="14.92" fill="#1d9e75"/>
  </g>
  <rect x="1325.91" y="932.86" width="147.6" height="7.7" fill="#c9a84c"/>
  <rect x="10.01" y="932.89" width="147.5" height="7.65" fill="#c9a84c"/>
  <path d="M1125.55,958.18l-1.37-26.11c-2.79,5.57-3.27,10.21-7.24,14.37l-4.39-9.21c.68-2.34-1.41-3.77-3.13-3.12l-.29,23.85c-2.07.43-3.34.32-4.79-.06l-.02-36.42c2.54-.71,4.86-.58,7.67-.24l5.48,15.47,3.96-10.65c.38-2.1,1.25-4.07,3.17-4.88l5.72.16.03,35.36c-.88,1.27-2.23,2.14-4.82,1.47Z" fill="#c9a84c"/>
  <path d="M1032.17,957.63l-5.75-11.11c-.77-1.82-1.98-3.01-2.95-3.64-1.91-.33-3.5-.32-5.41.99l.1,13.14c-1.4,2.14-5.17,1.59-5.62-.63l.02-35.06,17.62.32c5.18,1.7,7.92,5.59,7.87,10.22-.09,4.35-2.5,8.76-8.02,10.06l7.71,15.08c-1.14,1.27-3.35,1.9-5.57.63ZM1031.61,934.18c1.62-2.84.11-5.39-1.49-6.8-1.5-1.14-3.2-1.88-5.84-1.57l-6.19.39-.02,11.85,8.37.06c2.24-.15,3.79-1.34,5.17-3.93Z" fill="#c9a84c"/>
  <path d="M1222.3,957.49c-2.2,1.19-4.31,1.06-7.08.96l-9.53-22.49c-.16-1.86-.55-3.56-3.48-3.76l.17,23.03c-.16,2.1-1.63,3.79-4.98,3.15l-.2-36.79,7-.14c2.02,2.13,2.53,4.17,3.32,6.56l6.57,16.1c.35,1.17.61,2.32.96,2.77.84.86,2.62.16,2.22-1.33l-.05-23.83c1.79-.89,3.15-.88,4.94.02l.13,35.76Z" fill="#c9a84c"/>
  <path d="M289.02,957.4c-1.32.93-2.94,1.24-5.49,1.01l-.06-16.82-12.92-.25-.57,16.67c-2.5.49-4.06.25-5.5.06l-.05-36.41c1.43-.27,3.12-.5,5.43-.03l.13,14.92c5.21.66,8.99.75,13.57-.13l-.04-15.44,5.52.66-.02,35.77Z" fill="#c9a84c"/>
  <path d="M846.64,958.09l-7.56-14.22c-1.92-1.15-3.62-1.62-6.9-.73l.03,12.07c-.13,2.12-1.52,3.91-5.11,3.25l-.27-37.14,16.88.4c2.99.65,5.25,1.61,6.8,4.71,1.6,3.17,2.31,6.48.87,9.41-.88,2.88-3.18,5.31-7.48,6.25l8.39,15.81c-2.05.48-3.22.46-5.65.2ZM839.2,938.28c4.06-.02,6.4-2.35,7.02-4.84.39-2.45-.46-4.59-2.58-6.89-3.46-.99-6.58-1.06-11.46-.69l-.02,12.25c2.46.22,4.49.78,7.04.18Z" fill="#c9a84c"/>
  <path d="M889.88,937.92c2.11-1.95,4.36-1.29,5.34.29.39.83-.04,2.98-2.07,3.33l-13.88.33v11.61s17.35.06,17.35.06c1.02,1.43,1.04,3.04-.05,4.51l-22.99.08.03-36.89,21.96.07c1.84.56,2.42,2.98.5,4.35l-16.76.43-.18,8.29c-.65,2.25,1.07,3.34,3.12,2.48,2.49-.1,3.98-.61,7.63,1.05Z" fill="#c9a84c"/>
  <path d="M710,951.77c-2.96,5.86-9.45,8.05-15.94,6.38-5.19-1.16-8.59-5.81-9-11.13-1.58-7.03-1.17-14.02,1.63-20.17,2.78-4.48,6.86-6.32,12.33-5.9,4.73-.42,8.93,2.68,11.04,7,2.88,7.9,2.68,15.81-.06,23.81ZM705.24,948.57c1.7-6.68,1.91-13.65-.74-19.51-2.67-3.18-5.68-4.55-9.48-3.28-1.98.87-3.91,3.21-4.64,6.46-.47,5.01-.68,10.15.2,15.1.85,4.4,3.42,7.03,7.57,6.76,2.87.07,6.13-1.83,7.08-5.54Z" fill="#c9a84c"/>
  <path d="M476.15,956.08c-.5,2.44-3.09,3.04-5.24,1.76l-.15-15.95-13.44-.38-.42,16.42c-2.19.34-3.33.27-5.04-.05l-.13-36.23c1.77-.46,3.03-.51,5.11-.07l.22,14.53,13.11.43.05-14.99c1.4-.21,3.11-.73,5.73-.21l.21,34.71Z" fill="#c9a84c"/>
  <path d="M517.05,948.5l-12.99-.45c-.98,1.86-1.75,3.54-2.11,5.59-.05,2.94-2.03,5.54-6.72,4.53l11.13-36.47,7.62-.52,4.4,13.5,7.07,23.25c-2.11.58-3.24.47-5.44.3l-2.95-9.72ZM515.24,942.87l-4.03-12.17c-.14-1.77-2.01-1.95-2.45-.2l-3.93,13.34c3.49.03,6.52.43,10.41-.97Z" fill="#c9a84c"/>
  <path d="M615.47,939.17c-3.88,2.57-6.29,1.34-8.89,1.71l-8.54.68.36,11.82,14.44.13c1.29-.08,2.16.58,2.58,1.15.84.87.59,2.49-1.23,3.3l-21.36.25-.05-37.23,21.8.35c1.32.11,1.89,1.46,1.43,2.43-.08.57-.54,1.67-1.87,2.03l-15.66.32c-1.08,3.31-.41,5.69-.73,9.85,1.93,1.36,5.32.92,8.78,1.17,3.18.33,6.06-.81,8.95,2.03Z" fill="#c9a84c"/>
  <path d="M429.64,942.81c1.87,4,1.83,7.19.12,9.89-1.45,2.53-4.24,5.28-8.28,5.47-7.35,1.53-14.71-.82-17.77-7.77,1.48-1.54,3.02-1.87,4.86-1.9,1.85,4.81,5.79,6.57,10.32,5.58,3.24.26,5.66-2.09,6.29-4.68.69-2.77-.97-5.44-4.2-6.71l-7.56-1.98c-6.15-1.39-9.21-6.91-7.89-12.09,1.06-5.43,6.73-8.64,12.69-7.39,4.84-.47,8.3.97,11.56,5.52-.19,1.13-1.29,3.03-3.91,3.56-1.79-3.22-4.41-4.81-6.87-4.94-3.18-.65-6.11.38-8.03,2.94-.48,2.25-.22,4.01.69,5.25,1.1,1.18,2.71,2,4.91,2.54,4.9.88,9.42,2.39,13.07,6.71Z" fill="#c9a84c"/>
  <path d="M1076.91,937.71c3.67-2.03,4.76,3.6.8,2.96l-12.67.85v12.01s18.1,0,18.1,0c.46,1.6.47,2.87-.06,4.54l-23.54.12-.18-36.95,23.64.15c.43,1.84.1,2.91-.55,4.22l-17.39.06-.09,11.03,11.94,1.01Z" fill="#c9a84c"/>
  <path d="M327.3,941.09l-10.21.63-.04,11.82,15.08.05c1.28-.22,2.19.47,2.58,1.09.62.87.54,2.38-1.23,3.38l-21.44.11c-.61-3.04-.71-5.3-.06-8l-.39-28.79,23.19.05c.47,1.79.13,2.71-.11,3.54-.26.47-1.26,1.4-2.55.89l-15.04.33-.08,10.53,10.47.79c2.88-.62,5.12.11,6.39,2.83l-6.56.74Z" fill="#c9a84c"/>
  <path d="M551.47,942.9l-.13,13.97c-1.29,1.53-3.29,1.93-5.44.99l-.14-36.44,15.98.02c6.06.93,9.39,5.5,9.59,10.43-.1,5.6-3.11,9.71-9.1,10.98l-10.76.06ZM563.16,937.38c2.69-2.51,3.07-5.62,1.19-8.11-1.04-2.21-3.79-4.02-7.39-2.92-2.13-1.06-4.22-.89-5.76,0l.2,11.88c4.02,1.27,7.95.88,11.77-.86Z" fill="#c9a84c"/>
  <path d="M1174.38,940.41l-8.12.53-8.73.52.03,12.04,18.09.06c.75,1.46.82,2.92-.01,4.55l-23.24.06-.06-36.91,22.21.08c1.58.89,1.91,2.7-.06,4.27l-16.94.62-.09,10.19c2.03,1.04,3.56,1.01,5.59-.09,2.83,1.19,5.01,1.49,8.19.84,1.4.81,2.39,1.74,3.14,3.23Z" fill="#c9a84c"/>
  <path d="M985.07,953.35c2.39.35,3.24.96,3.59,1.24,1.32,1.21.98,3.27-.84,3.61l-21.6-.13c.25-1.93-.09-2.79-.2-3.25.98-1.16,2.14-1.67,4.09-1.34,1.71.29,2.99.4,4.87-.28l.05-26.81c-3-.95-5.14-.87-8.02-.21-1.16-1.74-.74-3.46-.61-4.82l22.66.13c1.15,2.57-.65,4.75-3.03,4.42l-5.44-.24-.34,18.14c.51,3.26.57,5.63.11,9.5.78.36,2.47.68,4.71.06Z" fill="#c9a84c"/>
  <path d="M754.68,937.46c1.55,1.48,1.24,3.36-.1,4.37h-14.9s0,15.02,0,15.02c-1.38,1.55-3.39,1.89-5.45,1.04l-.03-36.51,21.95.04c1.12,1.14,1.44,1.93,1.64,2.46-.37,1.24-1.37,2.09-3.09,1.99l-14.95-.13-.08,11.11,15.02.6Z" fill="#c9a84c"/>
  <path d="M1258.66,952.64c.24,2.17-.1,3.41-.48,4.3-.76.73-2.02,1.84-4.89,1.21l-.3-31.76c-4.07-1-6.7-.69-10.33-.12-1.45-1.56-1.26-3.78-.26-5l24.52.16c2.08-.6,4.41.72,3.49,3.9l-11.7.75-.07,26.56Z" fill="#c9a84c"/>
  <path d="M934,956.84c-1.07,1.57-3.21,2.06-5.26,1.06l-.1-31.69-8.1-.34c-1.22.1-2.2.24-3.2-.29-.53-.49-.97-1.62-.55-4.13l27.52-.07c1.13,1.19,1.46,1.96,1.66,2.5-.32,1.23-1.37,2.22-3.1,1.79l-8.68.03-.19,31.13Z" fill="#c9a84c"/>
  <path d="M232.47,926.56l.23,28.67c-.16,2.04-1.64,3.84-5.1,3.19l-.14-32.24-7.05-.26c-1.92.29-3.43.1-4.56-.55-.52-1.51-.38-3.33,1.23-4.31l27,.41c.82,1.61.33,2.82-.41,3.66-.52.27-1.51.52-2.92.58l-8.3.85Z" fill="#c9a84c"/>
  <g>
    <path d="M583.05,661.44c1.26-1,2.85-1.2,4.68-.09l.14,22.52-.2,8.4c-2.4,1.57-4.6-.06-4.27-2.13l-3.41-8.19c-3.58-6.88-10.91-9.89-18.57-10.47l-29.86-.17v135.24c.76,6.24,4.78,10.25,11.8,11.12.9,2.12-.92,3.57-2.64,3.31.47-.29.48-.79.05-1.56h-40.83c-.34.72-.44,1.17-.88,1.45-1.79-.53-3.54-.33-5.31-.19-.86-2.14.37-3.41,2.07-3.4,5.51-1.72,8.4-5.43,9.78-10.5l.16-135.06-29.89-.5c-4.69,1.16-8.98,2.14-13.09,4.43-4.12,2.76-6.78,6.41-8.09,11.03-1.24,1.38-1.61,3-1.71,4.84-.95,1.86-3.38,1.79-4.25.61l-.09-30.61,134.42-.09Z" fill="#f4f1e8"/>
    <path d="M505.6,806.79l.16-135.06-.16,135.06Z" fill="#f4f1e8"/>
    <path d="M583.05,661.44l-134.42.09c-.3-.56.06-1.89,1.61-1.61h131.83s.97,1.52.97,1.52Z" fill="#f4f1e8"/>
    <path d="M540.72,820.98l-41.67-.11c.44-.28.55-.73.88-1.45h40.83c.43.77.41,1.28-.05,1.56Z" fill="#f4f1e8"/>
  </g>
  <g>
    <path d="M396.17,819.73l-52.58-.31c-.45.73-.45,1.23-.4,1.53-.81-.05-1.56-.72-1.57-.76-.58-1.36.05-2.37,1.33-2.83,3.59-.78,6.52-2.65,8.58-5.88,1.01-4.59-.18-8.62-2.36-12.39l-9.52-22.39c-.66-2.34-1.72-4.55-4.26-5.61l-68.9.38-11.19,25.46-1.92,7.09c-.87,7.65,3.97,13.39,11.71,13.73.19,1.45-.72,2.46-1.77,2.79h-38.13c-1.6.47-2.84-.18-2.63-2.69,9.16-1.98,15.38-8.77,18.6-17.95l53.76-121.5c.69-1.83,1.77-3.57,1.67-5.25-.79-5.29-3.5-8.11-8.19-11.69l29.87-.85,7.18,17.22,23.41,54.86,30.73,71.06c2.65,6.31,7.03,10.94,13.35,13.58,1.86-.56,3.38.58,3.26,2.4ZM271.47,760.07c.01.61.11,1.25.39,1.93h59.9c.4-.79.47-1.3.51-1.55-.42-3.45-2.53-6.73-3.96-10.33l-8.32-20.2-16.56-40.23c-1.59-.87-3.02.72-2.47,2.34l-23.33,53.67-6.16,14.38Z" fill="#f4f1e8"/>
    <path d="M396.17,819.73c-.53,1.24-1.89,1.79-3.41,1.26l-49.57-.04c-.05-.3-.05-.8.4-1.53l52.58.31Z" fill="#f4f1e8"/>
    <path d="M332.27,760.44c-.04.25-.11.76-.51,1.55h-59.9c-.28-.67-.38-1.32-.39-1.93l3.23.3,57.57.07Z" fill="#f4f1e8"/>
  </g>
  <g>
    <path d="M85.57,661.36c17.27.66,33.37,7.01,47.61,17.2l12.75,13.11c10.85,16.55,16.23,36.08,13.74,55.6-.63,6.76-1.41,13.22-4.04,19.68-4.55,13.98-12.84,25.88-24.25,35.31-11.53,8.29-23.94,14.29-37.86,16.49l-10.12,1.67-83.39-1.54c.59-1.08,1.84-1.55,3.04-1.48,5.43-1.87,7.77-5.77,9.76-10.61l-.05-129.6c-1.34-6.59-4.14-12.48-11.77-13.5-.85-.11-1.2-1.68-.41-2.16l85-.16ZM119.26,785.89c8.34-11.81,12.09-25.15,13.18-38.67.97-5.56.92-11.16,0-16.67l-1.79-9.63c-2.65-10.67-6.46-20.9-13.43-29.43-8.49-10.33-19.65-16.63-32.69-18.45l-9.58-1.73-29.95-.23-5.94,1.62c.43,3.23.2,5.24-.72,8.07v116.22s.67,12.04.67,12.04l5.93,1.06,30.38-.23,6.93-1.11c14.97-2.29,28.25-9.35,37-22.85Z" fill="#f4f1e8"/>
    <path d="M12.8,806.8l-1.26-126.02c-.16-1.75.06-2.87,1.2-3.58l.05,129.6Z" fill="#f4f1e8"/>
    <path d="M85.57,661.36l-85,.16c-.29-.24-.26-.77.21-1.6h83.83c.48.66.57,1.13.97,1.44Z" fill="#f4f1e8"/>
    <polygon points="83.39 820.42 .8 821.14 0 818.88 83.39 820.42" fill="#f4f1e8"/>
  </g>
  <g>
    <path d="M953.35,661.47c1.1,1.68,2.25,3.74,3.01,6.34l41.88,93.27,10.09,21.8,1.06,2.84c.99,1.09,3.32.24,2.15-1.52l12.69-30.25,6.94-15.72,14.37-33.51,19.48-44.06,37.31.47c-.17,2.77-2.38,3.87-4.53,3.56-4.56,2.58-6.91,6.03-8.23,11.37l.06,130.43c1.44,6.82,6.14,10.84,12.66,11.37-.07,2.18-1.6,3.08-3.35,3.12.63-.69.12-1.82-1.21-1.57l-46.44-.47c.52-1.18,1.65-1.58,2.84-1.56,6.15-1.69,9.67-5.96,10.48-12.39l-.36-17.85c.72.54,1.73.07,1.55-1.18v-51.12c.18-1.24-.83-1.71-1.38-2.07l-.31-40.27-10.07,21.27-25.32,59.03-19.99,47.85-12.07-.49-29.82-66.01-7.84-17.69-17.82-37.97c-.95-1.76-1.39-3.6-1.34-5.57-.33-1.01-1.73-1.97-3.34-.66l.53,113.26c1.62,5.81,4.59,9.38,10.5,11.31,1.44.04,4.45.08,4.67,3.58l-40.6.19c-1.1-.59-1.43-1.4-1.45-2.02.31-.6,1.17-.88,2.1-1.18,4.28-1.64,8.3-3.43,10.58-7.26,1.34-3.31,3.11-6.13,2.24-9.99l-.15-122.13c-.9-6.57-4.45-11.22-10.62-13.67-1.87-.18-3.35-1.5-3.31-2.78l42.35-.08Z" fill="#f4f1e8"/>
    <path d="M939.84,692.92c-.61.26-1.92.65-1.64,2.15l-1.16,110.45-.53-113.26c1.61-1.3,3-.34,3.34.66Z" fill="#f4f1e8"/>
    <path d="M1064.23,787.14l.18-54.36c.54.36,1.55.83,1.38,2.07v51.12c.18,1.24-.83,1.72-1.55,1.18Z" fill="#f4f1e8"/>
    <path d="M1098.93,820.98l-47.16.03-.49-2.07,46.44.47c1.34-.25,1.85.88,1.21,1.57Z" fill="#f4f1e8"/>
    <path d="M953.35,661.47l-42.35.08c0-.24-.02-.77.41-1.62h40.95c.59.69.54,1.24.99,1.54Z" fill="#f4f1e8"/>
  </g>
  <g>
    <path d="M711.85,661.31c1.67-.76,3.74-.81,6.31-.24,1.69-1,3.5.07,3.18,2.19-6.99,1.16-12,5.68-13.01,12.66l.13,90.72c1.08,9.53,2.86,18.06,7.72,25.96,6.33,9.55,15.93,16.32,27.39,18.17,16.14,3.17,32.28-1.52,43.48-13.29,7.66-9.46,10.54-20.72,12.01-32.72l.16-55.38-.25-28.73c.43-8.57-4.96-15.27-13.46-16.87-.05.08-.55-1.02-.19-3.07l40.68.72c-5.77,4.04-10.81,5.17-13.69,11.41.77,1.08.23,2.95-1.3,2.88l.52,89.58c-1.6,9.9-3.06,19.9-8.44,29l-6,8.32c-5.92,8.4-14.61,13.77-24.36,17.43-17.87,5.7-36.75,5.31-54.49-1.08-7.84-2.92-14.49-7.18-20.46-12.91-9.3-9.7-13.77-22.28-15.2-35.66-.07-1.24.04-2.49-.63-3.34.11-.16.52-.43,1.18-.71l-.77-90.37c-2.41-5.29-4.16-10.46-10.45-12.23-1.37.44-2.47-.9-1.89-2.21l41.81-.23Z" fill="#f4f1e8"/>
    <path d="M681.97,767.06c-.27-.33-.67-.85-.56-1.91l.97-89.17.77,90.37c-.66.28-1.06.55-1.18.71Z" fill="#f4f1e8"/>
    <path d="M811.54,765.3l-.52-89.58.52,89.58Z" fill="#f4f1e8"/>
    <path d="M711.85,661.31l-41.81.23c.07-.23.14-.75.55-1.6l39.59-.02c1.13-.11,1.61.7,1.67,1.4Z" fill="#f4f1e8"/>
  </g>
</svg>